<svg xmlns="http://www.w3.org/2000/svg" viewBox="0 0 512 512">
  <rect width="512" height="512" fill="#E85D4C"/>
  <!-- Playfair Display Italic ? — extracted vector glyph, no font dependency -->
  <path d="M271.30 64.85L271.30 64.85Q261.77 64.85 250.73 67.36Q239.69 69.87 230.91 75.38Q222.13 80.90 219.12 89.43L219.12 89.43Q222.13 89.93 225.14 93.20Q228.16 96.46 230.16 100.97Q232.17 105.49 231.67 111.51L231.67 111.51Q231.17 121.54 223.39 127.81Q215.61 134.08 205.08 134.08L205.08 134.08Q195.04 134.08 190.03 128.32Q185.01 122.55 185.01 113.01L185.01 113.01Q185.01 100.47 193.04 89.93Q201.06 79.40 214.86 71.87Q228.66 64.35 245.46 60.33Q262.27 56.32 279.33 56.32L279.33 56.32Q301.40 56.32 317.96 63.09Q334.52 69.87 344.05 82.91Q353.58 95.95 353.58 115.52L353.58 115.52Q353.58 131.07 346.06 146.88Q338.53 162.68 320.47 181.50Q302.41 200.31 270.80 224.89L270.80 224.89Q244.71 244.96 226.65 258.26Q208.59 271.55 199.31 283.34Q190.03 295.13 190.03 311.19L190.03 311.19Q190.03 325.24 198.05 335.52Q206.08 345.81 225.65 345.81L225.65 345.81Q239.69 345.81 254.24 340.04Q268.79 334.27 273.81 323.73L273.81 323.73Q269.30 323.23 264.78 317.96Q260.26 312.69 260.77 306.17L260.77 306.17Q260.77 298.65 267.04 292.12Q273.31 285.60 283.34 285.60L283.34 285.60Q290.37 285.60 295.38 289.36Q300.40 293.13 300.40 303.16L300.40 303.16Q300.40 315.20 292.62 324.48Q284.85 333.76 272.05 340.54Q259.26 347.31 244.46 350.82Q229.66 354.33 216.11 354.33L216.11 354.33Q199.06 354.33 186.01 348.82Q172.97 343.30 165.69 332.51Q158.42 321.72 158.42 305.67L158.42 305.67Q158.42 284.10 171.21 266.79Q184.00 249.48 205.33 233.17Q226.65 216.87 251.74 197.80L251.74 197.80Q274.81 180.24 289.11 166.95Q303.41 153.65 310.18 140.61Q316.96 127.56 316.96 112.01L316.96 112.01Q316.96 91.44 305.92 78.14Q294.88 64.85 271.30 64.85ZM168.95 430.09L168.95 430.09Q168.95 415.04 180.49 403.25Q192.03 391.46 206.08 391.46L206.08 391.46Q217.62 391.46 224.64 398.99Q231.67 406.51 231.67 417.55L231.67 417.55Q231.67 427.58 226.40 436.36Q221.13 445.14 212.60 450.41Q204.07 455.68 194.04 455.68L194.04 455.68Q183.00 455.68 175.98 448.41Q168.95 441.13 168.95 430.09Z" fill="#FFFFFF"/>
</svg>